<?xml version="1.0" encoding="UTF-8" standalone="no"?>
<svg
   xmlns:dc="http://purl.org/dc/elements/1.1/"
   xmlns:cc="http://creativecommons.org/ns#"
   xmlns:rdf="http://www.w3.org/1999/02/22-rdf-syntax-ns#"
   xmlns:svg="http://www.w3.org/2000/svg"
   xmlns="http://www.w3.org/2000/svg"
   xmlns:sodipodi="http://sodipodi.sourceforge.net/DTD/sodipodi-0.dtd"
   xmlns:inkscape="http://www.inkscape.org/namespaces/inkscape"
   version="1.1"
   id="svg2"
   xml:space="preserve"
   width="619.33331"
   height="209.90668"
   viewBox="0 0 619.33331 209.90668"
   sodipodi:docname="infigo-logo-colour.eps"><metadata
     id="metadata8"><rdf:RDF><cc:Work
         rdf:about=""><dc:format>image/svg+xml</dc:format><dc:type
           rdf:resource="http://purl.org/dc/dcmitype/StillImage" /></cc:Work></rdf:RDF></metadata><defs
     id="defs6" /><sodipodi:namedview
     pagecolor="#ffffff"
     bordercolor="#666666"
     borderopacity="1"
     objecttolerance="10"
     gridtolerance="10"
     guidetolerance="10"
     inkscape:pageopacity="0"
     inkscape:pageshadow="2"
     inkscape:window-width="640"
     inkscape:window-height="480"
     id="namedview4" /><g
     id="g10"
     inkscape:groupmode="layer"
     inkscape:label="ink_ext_XXXXXX"
     transform="matrix(1.3333333,0,0,-1.3333333,0,209.90667)"><g
       id="g12"
       transform="scale(0.1)"><path
         d="m 521.023,1412.64 c 0,-75.66 -61.335,-137 -137,-137 -75.664,0 -137,61.34 -137,137 0,75.66 61.336,137 137,137 75.665,0 137,-61.34 137,-137"
         style="fill:#002e47;fill-opacity:1;fill-rule:nonzero;stroke:none"
         id="path14" /><path
         d="M 255.992,1154.24 H 514.004 V 316.059 H 255.992 v 838.181"
         style="fill:#002e47;fill-opacity:1;fill-rule:nonzero;stroke:none"
         id="path16" /><path
         d="m 1190.7,772.164 c 0,122.02 -38.08,188.035 -136.03,188.035 -102.053,0 -160.061,-96.043 -160.061,-252.051 V 316.059 H 638.555 v 838.181 h 256.054 v -138.03 c 20.02,34.03 98.047,152.05 250.001,152.05 204.1,0 306.15,-120.02 306.15,-378.08 V 316.059 H 1190.7 v 456.105"
         style="fill:#002e47;fill-opacity:1;fill-rule:nonzero;stroke:none"
         id="path18" /><path
         d="M 2177.87,964.203 H 1941.84 V 316.059 h -256.06 v 648.144 h -154.05 v 190.037 h 152.1 v 114.02 c 0,248.04 128.45,292.46 286.04,304.05 122.33,8.99 256.07,-11.57 388.3,-87.2 l -78.45,-162.88 c -129.42,66.21 -220.78,73.06 -274.73,53.22 -43.88,-16.13 -63.15,-37.17 -63.15,-123.21 v -98 h 494.14 V 316.059 h -258.11 v 648.144"
         style="fill:#002e47;fill-opacity:1;fill-rule:nonzero;stroke:none"
         id="path20" /><path
         d="m 2969.05,576.117 c 104.1,0 172.07,93.996 172.07,250.051 v 110.008 c -21.98,12.012 -71.98,32.031 -146,32.031 -122.07,0 -186.03,-94.043 -186.03,-204.051 0,-108.008 45.99,-188.039 159.96,-188.039 z M 2587.02,122.02 2717,298.039 c 30.07,-21.969 132.03,-89.988 230.07,-89.988 83.99,0 194.05,29.98 194.05,198.051 v 102 c -21.98,-24.024 -78.03,-128.032 -246,-128.032 -210.06,0 -346.09,158.059 -346.09,386.086 0,224.024 158,402.104 440.04,402.104 238.08,0 376.07,-118.02 404.1,-138.04 V 462.102 c 0,-368.1137 -204.01,-462.1137188 -440.04,-462.1137188 -172.07,0 -314.06,84.0430188 -366.11,122.0317188"
         style="fill:#002e47;fill-opacity:1;fill-rule:nonzero;stroke:none"
         id="path22" /><path
         d="m 3953.09,966.207 c -104,0 -192.09,-86.035 -192.09,-232.082 0,-147.996 88.09,-228.023 192.09,-228.023 108.01,0 194.04,80.027 194.04,226.07 0,148 -86.03,234.035 -194.04,234.035 z m 1.95,-662.156 c -250,0 -450.1,156.051 -450.1,430.074 0,276.075 200.1,434.135 450.1,434.135 250.1,0 448.15,-158.06 448.15,-436.088 0,-272.07 -198.05,-428.121 -448.15,-428.121"
         style="fill:#002e47;fill-opacity:1;fill-rule:nonzero;stroke:none"
         id="path24" /><path
         d="m 589.359,1437.65 c 0.996,-8.21 1.664,-16.53 1.664,-25.01 0,-8.47 -0.644,-16.78 -1.64,-24.99 H 1625.03 c 3.67,17.64 8.29,34.28 13.81,50 H 589.359"
         style="fill:#ff6867;fill-opacity:1;fill-rule:nonzero;stroke:none"
         id="path26" /><path
         d="M 4595,1437.65 H 2413 l -24.07,-50 H 4595 V 82.6484 H 3349.32 c -12.92,-15.2773 -26.81,-29.5781 -41.91,-42.6289 -2.94,-2.5312 -6,-4.9179 -9.02,-7.3711 H 4595 h 50 v 50 1305.0016 50 h -50"
         style="fill:#ff6867;fill-opacity:1;fill-rule:nonzero;stroke:none"
         id="path28" /><path
         d="m 2545.75,65.4688 -23.54,17.1796 H 50 V 1387.65 h 128.66 c -0.996,8.21 -1.637,16.52 -1.637,24.99 0,8.48 0.665,16.8 1.661,25.01 H 50 0 v -50 -1305.0016 -50 h 50 2546.4 c -25.04,14.711 -42.51,26.8907 -50.65,32.8204"
         style="fill:#ff6867;fill-opacity:1;fill-rule:nonzero;stroke:none"
         id="path30" /></g></g></svg>
